<svg width="16" height="17" viewBox="0 0 16 17" fill="none" xmlns="http://www.w3.org/2000/svg">
<path d="M14.8571 0H1.13929C0.510714 0 0 0.550223 0 1.22567V15.7743C0 16.4498 0.510714 17 1.13929 17H14.8571C15.4857 17 16 16.4498 16 15.7743V1.22567C16 0.550223 15.4857 0 14.8571 0ZM4.83571 14.5714H2.46429V6.45848H4.83929V14.5714H4.83571ZM3.65 5.35045C2.88929 5.35045 2.275 4.69397 2.275 3.88951C2.275 3.08504 2.88929 2.42857 3.65 2.42857C4.40714 2.42857 5.025 3.08504 5.025 3.88951C5.025 4.69777 4.41071 5.35045 3.65 5.35045ZM13.725 14.5714H11.3536V10.625C11.3536 9.68393 11.3357 8.47344 10.1214 8.47344C8.88571 8.47344 8.69643 9.49799 8.69643 10.5567V14.5714H6.325V6.45848H8.6V7.56652H8.63214C8.95 6.92902 9.725 6.25737 10.8786 6.25737C13.2786 6.25737 13.725 7.93839 13.725 10.1241V14.5714Z" fill="#007EBB"/>
</svg>
