<svg width="16" height="16" viewBox="0 0 16 16" fill="none" xmlns="http://www.w3.org/2000/svg">
<path fill-rule="evenodd" clip-rule="evenodd" d="M14.0828 1.39458C14.1555 1.31145 14.2111 1.21483 14.2464 1.11021C14.2818 1.0056 14.2962 0.895038 14.2888 0.784859C14.2814 0.67468 14.2524 0.567036 14.2034 0.468067C14.1544 0.369098 14.0865 0.280744 14.0033 0.208052C13.9202 0.135359 13.8236 0.0797513 13.719 0.0444026C13.6144 0.00905384 13.5038 -0.00534325 13.3936 0.00203324C13.2835 0.00940974 13.1758 0.0384155 13.0769 0.0873943C12.9779 0.136373 12.8895 0.204365 12.8168 0.28749L8.52129 5.19667L4.87555 0.336246C4.79726 0.231845 4.69572 0.147108 4.579 0.088746C4.46227 0.0303839 4.33357 0 4.20307 0H0.840611C0.684503 0 0.531474 0.043472 0.398677 0.125545C0.26588 0.207618 0.158561 0.325049 0.088746 0.46468C0.0189308 0.60431 -0.0106227 0.760624 0.00339707 0.916102C0.0174168 1.07159 0.074456 1.22009 0.168123 1.34498L5.57915 8.55912L1.04825 13.7373C0.975554 13.8204 0.919942 13.9171 0.884598 14.0217C0.849248 14.1263 0.834848 14.2369 0.842225 14.347C0.849601 14.4572 0.878609 14.5648 0.927589 14.6638C0.976563 14.7628 1.04456 14.8511 1.12768 14.9238C1.2108 14.9965 1.30743 15.0521 1.41205 15.0875C1.51667 15.1228 1.62722 15.1372 1.7374 15.1298C1.84757 15.1225 1.95523 15.0935 2.0542 15.0445C2.15316 14.9955 2.24152 14.9275 2.31421 14.8444L6.60974 9.93434L10.2555 14.7948C10.3338 14.8992 10.4353 14.9839 10.552 15.0423C10.6688 15.1006 10.7974 15.131 10.9279 15.131H14.2904C14.4465 15.131 14.5996 15.0876 14.7323 15.0055C14.8652 14.9234 14.9725 14.806 15.0423 14.6664C15.1121 14.5267 15.1417 14.3704 15.1276 14.2149C15.1136 14.0594 15.0566 13.911 14.9629 13.7861L9.5519 6.57191L14.0828 1.39458ZM11.3483 13.4498L2.52184 1.68123H3.78276L12.6092 13.4498H11.3483Z" fill="#121212"/>
</svg>
