<svg width="21" height="21" viewBox="0 0 21 21" fill="none" xmlns="http://www.w3.org/2000/svg">
<g clip-path="url(#clip0_848_1344)">
<path d="M0.448262 10.3743C0.44777 12.1387 0.912394 13.8615 1.79587 15.38L0.36377 20.5683L5.71483 19.1761C7.19487 19.9756 8.85314 20.3945 10.5383 20.3946H10.5427C16.1056 20.3946 20.634 15.903 20.6364 10.3822C20.6375 7.70693 19.5884 5.19133 17.6825 3.29872C15.7769 1.40628 13.2426 0.363526 10.5423 0.362305C4.97868 0.362305 0.450641 4.8537 0.448344 10.3743" fill="#1FAF38"/>
<path d="M0.0877734 10.3711C0.0871992 12.199 0.568476 13.9834 1.48345 15.5563L0 20.9306L5.54293 19.4885C7.07019 20.3147 8.78973 20.7504 10.5395 20.751H10.544C16.3065 20.751 20.9975 16.0978 21 10.3794C21.001 7.60802 19.9142 5.00199 17.9402 3.04158C15.966 1.08142 13.341 0.00113953 10.544 0C4.78045 0 0.0900703 4.65256 0.0877734 10.3711ZM3.38879 15.2854L3.18183 14.9594C2.3118 13.5868 1.85259 12.0005 1.85325 10.3717C1.85505 5.61864 5.75351 1.75163 10.5473 1.75163C12.8687 1.7526 15.0504 2.65056 16.6914 4.27977C18.3323 5.90914 19.2352 8.07507 19.2346 10.3787C19.2325 15.1318 15.3339 18.9993 10.544 18.9993H10.5405C8.98086 18.9985 7.45123 18.5829 6.11723 17.7975L5.79977 17.6107L2.51048 18.4664L3.38879 15.2854Z" fill="url(#paint0_linear_848_1344)"/>
<path d="M7.93061 6.03501C7.73488 5.60337 7.5289 5.59466 7.34277 5.58709C7.19036 5.58057 7.01612 5.58106 6.84205 5.58106C6.66782 5.58106 6.38473 5.6461 6.14544 5.90534C5.90591 6.16483 5.23096 6.7919 5.23096 8.06728C5.23096 9.34267 6.16718 10.5753 6.29769 10.7484C6.42837 10.9212 8.10509 13.6223 10.7606 14.6614C12.9676 15.5249 13.4167 15.3531 13.8957 15.3098C14.3747 15.2667 15.4415 14.6829 15.6591 14.0776C15.8769 13.4723 15.8769 12.9535 15.8116 12.8451C15.7463 12.7371 15.5721 12.6722 15.3108 12.5426C15.0495 12.4131 13.765 11.7858 13.5255 11.6993C13.286 11.6129 13.1119 11.5697 12.9376 11.8293C12.7634 12.0885 12.2631 12.6722 12.1106 12.8451C11.9583 13.0184 11.8058 13.04 11.5446 12.9103C11.2831 12.7802 10.4417 12.5068 9.44351 11.6238C8.66684 10.9366 8.14249 10.0881 7.99008 9.82852C7.83766 9.56935 7.97375 9.42887 8.10476 9.29969C8.22214 9.18354 8.36611 8.99698 8.49687 8.84567C8.62713 8.69427 8.67061 8.58626 8.75773 8.41338C8.84493 8.24033 8.80129 8.08894 8.73607 7.95927C8.67061 7.82961 8.16292 6.54755 7.93061 6.03501Z" fill="white"/>
</g>
<defs>
<linearGradient id="paint0_linear_848_1344" x1="1050" y1="2093.06" x2="1050" y2="0" gradientUnits="userSpaceOnUse">
<stop stop-color="#F9F9F9"/>
<stop offset="1" stop-color="white"/>
</linearGradient>
<clipPath id="clip0_848_1344">
<rect width="21" height="21" fill="white"/>
</clipPath>
</defs>
</svg>
