<svg width="15" height="11" viewBox="0 0 15 11" fill="none" xmlns="http://www.w3.org/2000/svg">
<path d="M7.5 6.47021C8.40065 6.47021 9.21587 6.10788 9.80609 5.52232C10.3957 4.93742 10.7609 4.12864 10.7609 3.2351C10.7609 2.34157 10.3957 1.53279 9.80609 0.947886C9.21587 0.362332 8.40065 0 7.5 0C6.59935 0 5.78413 0.362332 5.19391 0.947886C4.60435 1.53279 4.23913 2.34157 4.23913 3.2351C4.23913 4.12864 4.60435 4.93742 5.19391 5.52232C5.49672 5.82283 5.85623 6.06121 6.25192 6.22385C6.6476 6.38649 7.0717 6.4702 7.5 6.47021ZM12.7174 7.11723C12.9316 7.11765 13.1438 7.07611 13.3418 6.99497C13.5398 6.91383 13.7198 6.7947 13.8712 6.64441C14.0227 6.49412 14.1428 6.31563 14.2246 6.11919C14.3064 5.92275 14.3483 5.71222 14.3478 5.49968C14.3478 5.05323 14.1659 4.64884 13.8704 4.35574C13.719 4.20555 13.5392 4.08642 13.3414 4.00516C13.1436 3.92389 12.9315 3.88208 12.7174 3.88212C12.5032 3.8817 12.291 3.92325 12.0929 4.00438C11.8949 4.08552 11.715 4.20466 11.5635 4.35494C11.4121 4.50523 11.292 4.68372 11.2102 4.88016C11.1284 5.0766 11.0865 5.28714 11.087 5.49968C11.0866 5.71219 11.1286 5.92269 11.2104 6.11909C11.2922 6.31549 11.4123 6.49395 11.5637 6.64422C11.7152 6.79449 11.8951 6.91362 12.093 6.99479C12.291 7.07596 12.5032 7.11757 12.7174 7.11723ZM12.7174 7.49897C11.8493 7.49897 11.1965 7.76166 10.815 8.12529C10.0878 7.53197 8.93804 7.11723 7.5 7.11723C6.02217 7.11723 4.89457 7.5365 4.17913 8.12917C3.79043 7.7636 3.13043 7.49897 2.28261 7.49897C0.855652 7.49897 0 8.20422 0 8.91077C0 9.2634 0.855652 9.61732 2.28261 9.61732C2.67652 9.61732 3.03 9.58432 3.34109 9.53126L3.315 9.70596C3.315 10.353 4.88413 11 7.5 11C9.95348 11 11.685 10.353 11.685 9.70596L11.672 9.54097C11.9739 9.5882 12.3209 9.61732 12.7174 9.61732C14.055 9.61732 15 9.2634 15 8.91077C15 8.20422 14.1046 7.49897 12.7174 7.49897ZM2.28261 7.11723C2.73261 7.11723 3.14022 6.93671 3.43565 6.64361C3.58704 6.49337 3.70712 6.31503 3.78903 6.11875C3.87094 5.92247 3.91308 5.71211 3.91304 5.49968C3.91347 5.28714 3.87159 5.0766 3.78981 4.88016C3.70802 4.68372 3.58794 4.50523 3.43646 4.35494C3.28497 4.20466 3.10506 4.08552 2.90706 4.00438C2.70905 3.92325 2.49684 3.8817 2.28261 3.88212C2.0684 3.88178 1.85623 3.92339 1.65826 4.00456C1.46029 4.08573 1.28042 4.20486 1.12895 4.35513C0.977483 4.50541 0.857399 4.68386 0.775584 4.88026C0.693768 5.07667 0.65183 5.28716 0.652174 5.49968C0.651744 5.71222 0.693623 5.92275 0.775408 6.11919C0.857193 6.31563 0.977273 6.49412 1.12876 6.64441C1.28024 6.7947 1.46015 6.91383 1.65816 6.99497C1.85617 7.07611 2.06838 7.11765 2.28261 7.11723Z" fill="#005A8B"/>
</svg>
