<svg width="14" height="14" viewBox="0 0 14 14" fill="none" xmlns="http://www.w3.org/2000/svg">
<path d="M4.26087 6.46154C3.45369 6.46154 2.67957 6.17789 2.1088 5.67298C1.53804 5.16807 1.21739 4.48328 1.21739 3.76923V1.61538C1.21739 1.47258 1.28152 1.33562 1.39567 1.23463C1.50983 1.13365 1.66465 1.07692 1.82609 1.07692H2.43478C2.59622 1.07692 2.75104 1.02019 2.86519 0.919211C2.97935 0.81823 3.04348 0.68127 3.04348 0.538462C3.04348 0.395653 2.97935 0.258693 2.86519 0.157712C2.75104 0.0567306 2.59622 0 2.43478 0H1.82609C1.34178 0 0.877306 0.170192 0.534848 0.473135C0.192391 0.776079 0 1.18696 0 1.61538V3.76923C0.00078243 4.37755 0.16847 4.97661 0.48866 5.51497C0.808851 6.05332 1.27198 6.51488 1.83826 6.86C2.38288 7.28392 2.82448 7.80128 3.13628 8.3807C3.44809 8.96013 3.6236 9.58954 3.65217 10.2308C3.65217 11.2304 4.10108 12.1892 4.90015 12.896C5.69922 13.6029 6.78299 14 7.91304 14C9.04309 14 10.1269 13.6029 10.9259 12.896C11.725 12.1892 12.1739 11.2304 12.1739 10.2308V9.61692C12.7477 9.48587 13.2478 9.17418 13.5804 8.7403C13.913 8.30642 14.0553 7.78013 13.9806 7.26008C13.9059 6.74002 13.6194 6.26191 13.1747 5.91537C12.7301 5.56882 12.1578 5.37762 11.5652 5.37762C10.9726 5.37762 10.4003 5.56882 9.95568 5.91537C9.51103 6.26191 9.22451 6.74002 9.14984 7.26008C9.07517 7.78013 9.21747 8.30642 9.55006 8.7403C9.88266 9.17418 10.3827 9.48587 10.9565 9.61692V10.2308C10.9565 10.9448 10.6359 11.6296 10.0651 12.1345C9.49434 12.6394 8.72022 12.9231 7.91304 12.9231C7.10586 12.9231 6.33174 12.6394 5.76098 12.1345C5.19021 11.6296 4.86956 10.9448 4.86956 10.2308C4.89967 9.58874 5.07708 8.95884 5.39101 8.37937C5.70493 7.7999 6.14881 7.28297 6.69565 6.86C7.25968 6.51368 7.72044 6.0516 8.03847 5.51332C8.35649 4.97504 8.52232 4.3766 8.52174 3.76923V1.61538C8.52174 1.18696 8.32934 0.776079 7.98689 0.473135C7.64443 0.170192 7.17996 0 6.69565 0H6.08695C5.92552 0 5.77069 0.0567306 5.65654 0.157712C5.54239 0.258693 5.47826 0.395653 5.47826 0.538462C5.47826 0.68127 5.54239 0.81823 5.65654 0.919211C5.77069 1.02019 5.92552 1.07692 6.08695 1.07692H6.69565C6.85709 1.07692 7.01191 1.13365 7.12606 1.23463C7.24021 1.33562 7.30434 1.47258 7.30434 1.61538V3.76923C7.30434 4.12279 7.22562 4.47289 7.07267 4.79953C6.91972 5.12618 6.69554 5.42298 6.41293 5.67298C6.13032 5.92298 5.79481 6.1213 5.42556 6.2566C5.0563 6.3919 4.66054 6.46154 4.26087 6.46154ZM11.5652 8.61539C11.2423 8.61539 10.9327 8.50192 10.7044 8.29996C10.4761 8.098 10.3478 7.82408 10.3478 7.53846C10.3478 7.25284 10.4761 6.97892 10.7044 6.77696C10.9327 6.575 11.2423 6.46154 11.5652 6.46154C11.8881 6.46154 12.1977 6.575 12.426 6.77696C12.6543 6.97892 12.7826 7.25284 12.7826 7.53846C12.7826 7.82408 12.6543 8.098 12.426 8.29996C12.1977 8.50192 11.8881 8.61539 11.5652 8.61539Z" fill="#005A8B"/>
</svg>
