<svg width="13" height="17" viewBox="0 0 13 17" fill="none" xmlns="http://www.w3.org/2000/svg">
<path d="M6.3 12.15C5.84747 12.1501 5.41152 11.9797 5.07895 11.6729C4.74638 11.366 4.5416 10.9451 4.5054 10.494C3.30497 10.0691 2.29324 9.23375 1.64882 8.13543C1.0044 7.03711 0.76871 5.74643 0.983363 4.49124C1.19802 3.23605 1.84921 2.09704 2.82199 1.27528C3.79477 0.453526 5.02659 0.00185441 6.3 5.67846e-08C7.65441 -0.000196247 8.95943 0.508578 9.95631 1.42544C10.9532 2.34231 11.5691 3.60031 11.682 4.95C11.6858 5.00854 11.6773 5.06723 11.6572 5.12233C11.637 5.17743 11.6056 5.22774 11.565 5.27006C11.5244 5.31238 11.4754 5.34578 11.4212 5.36815C11.3669 5.39052 11.3086 5.40137 11.25 5.4C11.1294 5.39698 11.0143 5.34925 10.927 5.26608C10.8397 5.18292 10.7864 5.07026 10.7775 4.95C10.6973 4.15425 10.4066 3.39424 9.93508 2.74821C9.46361 2.10219 8.82848 1.59349 8.09508 1.27448C7.36168 0.955471 6.55651 0.837687 5.76246 0.93325C4.96842 1.02881 4.21419 1.33427 3.57742 1.81818C2.94065 2.30209 2.44435 2.94696 2.13962 3.6864C1.83488 4.42584 1.73272 5.23314 1.84366 6.02519C1.95459 6.81723 2.27461 7.5654 2.77077 8.19267C3.26692 8.81995 3.92129 9.30365 4.6665 9.594C4.8021 9.30101 5.014 9.04988 5.28001 8.86692C5.54601 8.68397 5.85633 8.57592 6.17844 8.55411C6.50055 8.5323 6.8226 8.59753 7.11084 8.74295C7.39908 8.88838 7.64291 9.10865 7.81676 9.38069C7.99062 9.65273 8.08811 9.96652 8.09902 10.2892C8.10992 10.6119 8.03385 10.9315 7.87876 11.2147C7.72367 11.4978 7.49528 11.7341 7.21752 11.8986C6.93976 12.0632 6.62285 12.15 6.3 12.15ZM1.8081 9.9H1.89C2.42132 10.4212 3.0408 10.8442 3.7197 11.1492C3.91922 11.8075 4.36247 12.3648 4.95897 12.7074C5.55547 13.05 6.26023 13.152 6.92937 12.9925C7.59851 12.8331 8.18158 12.4243 8.55953 11.8496C8.93749 11.2749 9.08183 10.5775 8.9631 9.9H10.8C11.2774 9.9 11.7352 10.0896 12.0728 10.4272C12.4104 10.7648 12.6 11.2226 12.6 11.7C12.6 13.2219 11.8503 14.3694 10.6785 15.1173C9.5247 15.8526 7.9695 16.2 6.3 16.2C4.6305 16.2 3.0753 15.8526 1.9215 15.1173C0.7497 14.3703 0 13.221 0 11.7C0 10.6983 0.8127 9.9 1.8081 9.9ZM9.9 5.4C9.9002 6.00898 9.7459 6.60805 9.45156 7.14117C9.15722 7.67428 8.73246 8.12402 8.217 8.4483C7.96597 8.1953 7.66733 7.9945 7.33832 7.85748C7.0093 7.72047 6.65641 7.64995 6.3 7.65C5.94359 7.64995 5.5907 7.72047 5.26168 7.85748C4.93267 7.9945 4.63403 8.1953 4.383 8.4483C3.69938 8.01839 3.18016 7.37111 2.9088 6.6105C2.77037 6.22194 2.69974 5.81248 2.7 5.4C2.7 4.44522 3.07928 3.52955 3.75442 2.85442C4.42955 2.17928 5.34522 1.8 6.3 1.8C7.25478 1.8 8.17045 2.17928 8.84558 2.85442C9.52072 3.52955 9.9 4.44522 9.9 5.4Z" fill="#005A8B"/>
</svg>
