<svg width="19" height="19" viewBox="0 0 19 19" fill="none" xmlns="http://www.w3.org/2000/svg">
<path d="M18.1321 5.1489C17.9249 4.36878 17.3144 3.75438 16.5393 3.54587C15.1345 3.16699 9.50107 3.16699 9.50107 3.16699C9.50107 3.16699 3.8677 3.16699 2.46279 3.54587C1.68772 3.75441 1.07728 4.36878 0.87009 5.1489C0.493652 6.56291 0.493652 9.51312 0.493652 9.51312C0.493652 9.51312 0.493652 12.4633 0.87009 13.8774C1.07728 14.6575 1.68772 15.2463 2.46279 15.4548C3.8677 15.8337 9.50107 15.8337 9.50107 15.8337C9.50107 15.8337 15.1344 15.8337 16.5393 15.4548C17.3144 15.2463 17.9249 14.6575 18.1321 13.8774C18.5085 12.4633 18.5085 9.51312 18.5085 9.51312C18.5085 9.51312 18.5085 6.56291 18.1321 5.1489ZM7.65863 12.1917V6.83455L12.367 9.51319L7.65863 12.1917Z" fill="#FF0000"/>
</svg>
