<svg width="103" height="1458" viewBox="0 0 103 1458" fill="none" xmlns="http://www.w3.org/2000/svg">
<path d="M60.046 0.558594C22.3563 56.5267 -30.4093 231.154 60.046 481.918C91.7055 588.721 136.029 835.908 60.046 970.232C15.4885 1057.83 -46.892 1277.73 60.046 1456.56" stroke="url(#paint0_linear_366_290)" stroke-width="2" stroke-dasharray="10 10"/>
<path fill-rule="evenodd" clip-rule="evenodd" d="M36.3688 42.261L36.3697 42.264C36.3633 42.7009 36.4793 43.1311 36.7046 43.5059C36.9299 43.8806 37.2556 44.185 37.6447 44.3846C38.0338 44.5842 38.4708 44.6711 38.9064 44.6353C39.3419 44.5995 39.7585 44.4426 40.109 44.1822L40.113 44.1792L40.121 44.1734L40.153 44.1499L40.2751 44.0578L40.7404 43.7101L42.408 42.4607L54.2967 33.5697L54.7925 33.1989L54.9311 33.0966L54.9711 33.0672C55.2475 32.945 55.4823 32.7452 55.6472 32.492C55.812 32.2388 55.8998 31.9432 55.8999 31.6408C55.9001 31.3385 55.8125 31.0425 55.6478 30.7887C55.4832 30.5348 55.2485 30.334 54.9722 30.2106C54.8215 30.1303 54.6587 30.075 54.4902 30.047C54.3369 30.022 54.1729 30.0202 54.0199 30.0166L54.0134 30.017L49.2415 29.9085L46.1225 29.8382L45.103 29.8143L45.0946 29.8137L45.0882 29.8042L44.4641 28.9862L42.5557 26.4876C41.5863 25.2128 40.6107 23.9426 39.6293 22.677L39.5801 22.6168C39.4627 22.473 39.2553 22.2144 38.9427 22.054C38.7601 21.9603 38.5608 21.9034 38.3563 21.8867C38.1518 21.8699 37.9461 21.8936 37.7509 21.9563C37.5556 22.0191 37.3748 22.1197 37.2186 22.2525C37.0624 22.3852 36.9339 22.5474 36.8406 22.7299L36.8304 22.7497C36.7671 22.8615 36.7144 22.979 36.6732 23.1007C36.6126 23.308 36.5881 23.5241 36.6008 23.7398L36.6018 23.7428L36.6007 23.8009L36.6006 23.9793L36.5954 24.6116L36.5708 26.7625C36.5193 30.9808 36.4647 35.1991 36.407 39.4173L36.3813 41.4827L36.3701 42.0608L36.3717 42.2139L36.3678 42.2531L36.3688 42.261Z" fill="#00CFB2"/>
<path fill-rule="evenodd" clip-rule="evenodd" d="M70.6718 531.603L70.6743 531.604C70.9276 531.941 71.271 532.197 71.6657 532.345C72.0604 532.492 72.4907 532.524 72.9077 532.437C73.3248 532.35 73.7121 532.149 74.0257 531.854C74.3393 531.56 74.5667 531.185 74.6823 530.772L74.6836 530.767L74.6863 530.758L74.697 530.72L74.7364 530.575L74.8886 530.025L75.4319 528.051L79.315 513.991L79.4769 513.404L79.523 513.241L79.5364 513.194C79.6765 512.932 79.7389 512.636 79.716 512.342C79.6931 512.048 79.5858 511.769 79.4072 511.539C79.2286 511.309 78.9863 511.137 78.7097 511.045C78.4331 510.952 78.134 510.943 77.8488 511.019C77.6854 511.05 77.5276 511.108 77.3815 511.19C77.2489 511.265 77.1218 511.364 77.002 511.455L76.9973 511.459L73.2652 514.303L70.8262 516.162L70.0284 516.769L70.0216 516.774L70.0111 516.771L69.0478 516.531L66.1041 515.799C64.6054 515.423 63.1047 515.054 61.6022 514.692L61.5289 514.676C61.3536 514.639 61.0413 514.569 60.7063 514.639C60.5105 514.679 60.3237 514.758 60.1566 514.871C59.9895 514.984 59.8454 515.128 59.7324 515.295C59.6195 515.463 59.5399 515.65 59.4983 515.847C59.4567 516.044 59.4539 516.246 59.4899 516.443L59.4938 516.464C59.5112 516.588 59.5402 516.71 59.5805 516.827C59.6564 517.022 59.7654 517.202 59.9026 517.358L59.9051 517.36L59.9386 517.405L60.044 517.541L60.4137 518.026L61.6662 519.678C64.1199 522.922 66.5713 526.167 69.0203 529.414L70.2213 531.002L70.5544 531.449L70.6461 531.565L70.6663 531.597L70.6718 531.603Z" fill="#287FC4"/>
<path fill-rule="evenodd" clip-rule="evenodd" d="M40.9519 1018.02L40.9531 1018.02C40.9891 1018.47 41.1489 1018.91 41.4145 1019.27C41.6801 1019.64 42.041 1019.92 42.4562 1020.1C42.8714 1020.27 43.3244 1020.32 43.7639 1020.24C44.2034 1020.17 44.612 1019.97 44.9432 1019.67L44.947 1019.67L44.9546 1019.66L44.9849 1019.64L45.1001 1019.53L45.5396 1019.13L47.1145 1017.7L58.3438 1007.53L58.8121 1007.1L58.9431 1006.98L58.981 1006.95C59.2502 1006.8 59.4697 1006.58 59.6128 1006.3C59.7559 1006.03 59.8165 1005.71 59.7872 1005.4C59.7579 1005.09 59.6401 1004.79 59.4479 1004.55C59.2557 1004.3 58.9975 1004.11 58.7045 1004.01C58.5433 1003.94 58.3724 1003.9 58.1983 1003.88C58.0399 1003.87 57.8729 1003.88 57.7169 1003.89L57.7104 1003.89L52.8457 1004.2L49.6662 1004.39L48.6268 1004.46L48.6182 1004.46L48.6108 1004.45L47.8964 1003.66L45.7124 1001.25C44.6023 1000.02 43.4866 998.801 42.3652 997.584L42.3093 997.526C42.1759 997.388 41.9398 997.14 41.6063 997.002C41.4114 996.921 41.2031 996.88 40.9935 996.88C40.7838 996.881 40.5769 996.923 40.3844 997.004C40.1919 997.086 40.0177 997.205 39.8717 997.355C39.7257 997.505 39.6108 997.683 39.5336 997.879L39.5252 997.9C39.4716 998.021 39.4295 998.146 39.3994 998.275C39.3579 998.494 39.354 998.718 39.3879 998.939L39.3891 998.942L39.3937 999.002L39.4109 999.186L39.467 999.837L39.6511 1002.05C40.0087 1006.4 40.3631 1010.74 40.7144 1015.09L40.889 1017.22L40.9338 1017.81L40.9503 1017.97L40.9502 1018.01L40.9519 1018.02Z" fill="#00CFB2"/>
<defs>
<linearGradient id="paint0_linear_366_290" x1="1" y1="728.559" x2="102" y2="728.559" gradientUnits="userSpaceOnUse">
<stop stop-color="#00CFB2"/>
<stop offset="1" stop-color="#287FC4"/>
</linearGradient>
</defs>
</svg>
