<svg width="910" height="107" viewBox="0 0 910 107" fill="none" xmlns="http://www.w3.org/2000/svg">
<path d="M0.848633 0.551147C69.2757 110.407 166.045 149.885 278.164 29.9019C288.931 18.3807 310.127 22.547 318.559 35.8718C369.673 116.647 513.423 142.976 591.928 25.3106C599.467 14.0119 616.038 12.018 625.212 22.0337C689.788 92.5282 795.219 172.579 908.849 0.551147" stroke="url(#paint0_linear_365_234)" stroke-width="2" stroke-dasharray="10 10"/>
<path fill-rule="evenodd" clip-rule="evenodd" d="M27.7512 40.9271H27.7544C28.1682 41.0673 28.6131 41.0891 29.0388 40.9902C29.4644 40.8913 29.8538 40.6755 30.1629 40.3673C30.4719 40.0592 30.6883 39.6709 30.7875 39.2465C30.8867 38.822 30.8648 38.3784 30.7243 37.9657L30.7227 37.961L30.7196 37.9516L30.707 37.914L30.6567 37.7699L30.4681 37.2215L29.7893 35.255L24.9652 21.2407L24.764 20.6563L24.709 20.4933L24.6933 20.4463C24.6615 20.1465 24.5432 19.8622 24.3527 19.628C24.1622 19.3939 23.9077 19.2198 23.62 19.1269C23.3322 19.0341 23.0237 19.0264 22.7317 19.1048C22.4397 19.1833 22.1768 19.3445 21.9748 19.5689C21.8522 19.6873 21.7498 19.8249 21.6715 19.9763C21.6008 20.1142 21.549 20.2693 21.4987 20.4134L21.4971 20.4197L19.9336 24.9167L18.9122 27.8562L18.5775 28.8167L18.5743 28.8245L18.5633 28.8276L17.5938 29.1692L14.6317 30.2143C13.1217 30.7436 11.6142 31.28 10.1093 31.8235L10.037 31.8517C9.86417 31.9191 9.55461 32.0366 9.30633 32.2842C9.16123 32.4288 9.04612 32.6005 8.96759 32.7895C8.88906 32.9785 8.84863 33.1811 8.84863 33.3857C8.84863 33.5903 8.88906 33.7929 8.96759 33.9819C9.04612 34.1709 9.16123 34.3426 9.30633 34.4872L9.32205 34.5029C9.40905 34.5973 9.50481 34.6834 9.60804 34.7599C9.78676 34.881 9.98502 34.9705 10.1942 35.0247H10.1973L10.2523 35.0435L10.422 35.0983L11.0223 35.2973L13.0619 35.9805C17.061 37.3235 21.0592 38.6695 25.0563 40.0183L27.0142 40.6764L27.5611 40.8645L27.7072 40.9099L27.7434 40.9256L27.7512 40.9271Z" fill="#00CFB2"/>
<path fill-rule="evenodd" clip-rule="evenodd" d="M285.688 26.7163L285.688 26.7131C285.856 26.3105 285.91 25.8683 285.844 25.4367C285.778 25.0051 285.595 24.6012 285.315 24.2708C285.036 23.9403 284.671 23.6966 284.262 23.567C283.853 23.4375 283.416 23.4274 283.001 23.5378L282.997 23.5391L282.987 23.5415L282.949 23.5513L282.804 23.5911L282.253 23.7397L280.274 24.275L266.178 28.0764L265.59 28.2349L265.426 28.278L265.379 28.2903C265.082 28.3004 264.795 28.3979 264.551 28.571C264.308 28.7442 264.118 28.9855 264.006 29.2657C263.894 29.546 263.864 29.8531 263.919 30.15C263.975 30.4468 264.114 30.7207 264.319 30.9383C264.426 31.0691 264.554 31.1812 264.696 31.2701C264.826 31.3505 264.975 31.4134 265.112 31.474L265.118 31.476L269.414 33.3593L272.222 34.5898L273.139 34.9928L273.146 34.9965L273.149 35.0077L273.413 35.9992L274.221 39.0286C274.629 40.5727 275.045 42.1148 275.467 43.6548L275.49 43.729C275.543 43.9062 275.636 44.2234 275.86 44.4888C275.991 44.644 276.151 44.7711 276.331 44.8631C276.511 44.955 276.706 45.0099 276.907 45.0247C277.107 45.0394 277.309 45.0137 277.5 44.949C277.691 44.8843 277.868 44.7819 278.021 44.6476L278.037 44.633C278.136 44.5531 278.228 44.4638 278.31 44.3663C278.442 44.1968 278.544 44.0055 278.613 43.8008L278.613 43.7977L278.635 43.7442L278.702 43.5789L278.941 42.9946L279.76 41.0096C281.37 37.1181 282.983 33.2277 284.599 29.3385L285.388 27.4332L285.612 26.9014L285.667 26.7589L285.685 26.724L285.688 26.7163Z" fill="#287FC4"/>
<path fill-rule="evenodd" clip-rule="evenodd" d="M600.276 20.2599L600.276 20.2567C600.398 19.822 600.399 19.3609 600.277 18.9255C600.156 18.4902 599.917 18.0979 599.588 17.7933C599.259 17.4886 598.853 17.2836 598.416 17.2015C597.979 17.1194 597.528 17.1635 597.115 17.3288L597.11 17.3306L597.101 17.3343L597.063 17.3491L596.919 17.4081L596.37 17.6296L594.4 18.4265L580.367 24.0916L579.782 24.3278L579.618 24.3925L579.571 24.4111C579.268 24.4584 578.984 24.5945 578.755 24.8028C578.526 25.0111 578.361 25.2827 578.28 25.5846C578.2 25.8866 578.207 26.206 578.302 26.5042C578.396 26.8023 578.573 27.0664 578.811 27.2644C578.938 27.3855 579.083 27.4847 579.241 27.5583C579.385 27.6248 579.545 27.6709 579.695 27.7159L579.701 27.7173L584.357 29.1168L587.4 30.0309L588.394 30.3306L588.403 30.3335L588.406 30.3447L588.802 31.3308L590.011 34.3431C590.624 35.8789 591.244 37.4118 591.872 38.9417L591.904 39.0151C591.981 39.1905 592.116 39.5049 592.38 39.7497C592.534 39.8928 592.715 40.0035 592.911 40.0756C593.108 40.1476 593.316 40.1797 593.524 40.1698C593.732 40.1599 593.937 40.1083 594.125 40.018C594.314 39.9277 594.483 39.8003 594.623 39.6433L594.638 39.6263C594.73 39.5318 594.813 39.4286 594.886 39.3182C595.001 39.1275 595.082 38.9182 595.127 38.6993L595.127 38.6961L595.143 38.6383L595.191 38.4602L595.364 37.8299L595.96 35.6878C597.131 31.4878 598.305 27.2887 599.483 23.0904L600.057 21.0341L600.222 20.4596L600.261 20.3062L600.275 20.2681L600.276 20.2599Z" fill="#00CFB2"/>
<path fill-rule="evenodd" clip-rule="evenodd" d="M892.375 27.2479L892.375 27.2447C892.463 26.8017 892.427 26.342 892.271 25.9176C892.116 25.4932 891.847 25.121 891.495 24.8432C891.143 24.5655 890.722 24.3932 890.28 24.3458C889.837 24.2985 889.392 24.378 888.993 24.5753L888.988 24.5775L888.979 24.582L888.943 24.5997L888.803 24.6699L888.273 24.934L886.373 25.8838L872.831 32.6386L872.266 32.9203L872.108 32.9977L872.063 33.0199C871.764 33.091 871.492 33.2491 871.28 33.4748C871.068 33.7005 870.925 33.9843 870.869 34.2917C870.812 34.599 870.845 34.9169 870.962 35.2067C871.08 35.4964 871.277 35.7457 871.53 35.9243C871.666 36.035 871.818 36.1225 871.982 36.1834C872.13 36.2383 872.294 36.2716 872.446 36.3047L872.453 36.3055L877.205 37.3333L880.31 38.0045L881.325 38.2248L881.334 38.227L881.338 38.2379L881.81 39.1897L883.254 42.0972C883.986 43.5798 884.725 45.059 885.471 46.5346L885.509 46.6052C885.6 46.774 885.759 47.0768 886.042 47.3C886.207 47.4304 886.396 47.5265 886.597 47.5829C886.799 47.6393 887.009 47.6548 887.216 47.6285C887.422 47.6022 887.622 47.5346 887.803 47.4297C887.984 47.3248 888.142 47.1845 888.27 47.0169L888.284 46.9987C888.368 46.8973 888.442 46.7879 888.506 46.672C888.605 46.4729 888.67 46.2578 888.697 46.0361L888.697 46.0329L888.709 45.974L888.742 45.7927L888.865 45.1507L889.29 42.9683C890.126 38.6889 890.966 34.4102 891.808 30.1321L892.218 28.0369L892.337 27.4512L892.364 27.2953L892.375 27.2562L892.375 27.2479Z" fill="#287FC4"/>
<defs>
<linearGradient id="paint0_linear_365_234" x1="0.848633" y1="52.837" x2="908.849" y2="52.837" gradientUnits="userSpaceOnUse">
<stop stop-color="#00CFB2"/>
<stop offset="1" stop-color="#287FC4"/>
</linearGradient>
</defs>
</svg>
