<svg width="19" height="19" viewBox="0 0 19 19" fill="none" xmlns="http://www.w3.org/2000/svg">
<path d="M9.20312 0C4.11914 0 0 4.11914 0 9.20312C0 14.2871 4.11914 18.4062 9.20312 18.4062C14.2871 18.4062 18.4062 14.2871 18.4062 9.20312C18.4062 4.11914 14.2871 0 9.20312 0ZM13.723 6.30488L12.2127 13.4225C12.1014 13.9271 11.8008 14.0496 11.3814 13.8121L9.08066 12.1162L7.97109 13.185C7.84863 13.3074 7.74473 13.4113 7.50723 13.4113L7.67051 11.0697L11.9344 7.21777C12.1199 7.05449 11.8936 6.96172 11.6486 7.125L6.3791 10.4426L4.10801 9.73379C3.61445 9.57793 3.60332 9.24023 4.21191 9.00273L13.0848 5.58125C13.4967 5.43281 13.8566 5.68145 13.723 6.30488Z" fill="#29A7E1"/>
</svg>
