<svg width="109" height="31" viewBox="0 0 109 31" fill="none" xmlns="http://www.w3.org/2000/svg">
<path d="M108.382 27.7042C108.382 28.1098 108.301 28.5114 108.144 28.8861C107.987 29.2608 107.758 29.6012 107.468 29.8878C107.178 30.1745 106.834 30.4018 106.455 30.5567C106.076 30.7116 105.671 30.7911 105.261 30.7907H3.12507C2.29726 30.7916 1.50299 30.4669 0.916948 29.8881C0.330907 29.3093 0.00107884 28.5238 0 27.7042V3.09052C0.00107835 2.27063 0.330776 1.48468 0.916701 0.905231C1.50263 0.325785 2.29688 0.000212817 3.12507 0H105.26C105.67 -1.38036e-08 106.076 0.0799444 106.455 0.235267C106.833 0.39059 107.178 0.618248 107.467 0.90524C107.757 1.19223 107.987 1.53293 108.144 1.90789C108.301 2.28284 108.381 2.6847 108.381 3.09052L108.382 27.7042Z" fill="black"/>
</svg>
